Chillar Party [2011] 2Cd-DvdRip -=[TDT]=-



eneral
Complete name                    : D:\MOVIES\HINDI\Chillar Party [2011] 2Cd-DvdRip -=[TDT]=-\Chillar Party [2011] 2Cd-DvdRip -=[TDT]=-
Format                           : AVI
Format/Info                      : Audio Video Interleave
File size                        : 1.36 GiB
Duration                         : 2h 15mn
Overall bit rate                 : 1 443 Kbps
Writing library                  : VirtualDub build 32842/release

Video
ID                               : 0
Format                           : MPEG-4 Visual
Format profile                   : Advanced Simple@L5
Format settings, BVOP            : 2
Format settings, QPel            : No
Format settings, GMC             : No warppoints
Format settings, Matrix          : Default (H.263)
Codec ID                         : XVID
Codec ID/Hint                    : XviD
Duration                         : 2h 15mn
Bit rate                         : 1 306 Kbps
Width                            : 704 pixels
Height                           : 304 pixels
Display aspect ratio             : 2.35:1
Frame rate                       : 23.976 fps
Color space                      : YUV
Chroma subsampling               : 4:2:0
Bit depth                        : 8 bits
Scan type                        : Interlaced
Scan order                       : Bottom Field First
Compression mode                 : Lossy
Bits/(Pixel*Frame)               : 0.254
Stream size                      : 1.23 GiB (90%)
Writing library                  : XviD 1.2.1 (UTC 2008-12-04)

Audio
ID                               : 1
Format                           : MPEG Audio
Format version                   : Version 1
Format profile                   : Layer 3
Mode                             : Joint stereo
Mode extension                   : MS Stereo
Codec ID                         : 55
Codec ID/Hint                    : MP3
Duration                         : 2h 15mn
Bit rate mode                    : Constant
Bit rate                         : 128 Kbps
Channel(s)                       : 2 channels
Sampling rate                    : 48.0 KHz
Compression mode                 : Lossy
Delay relative to video          : 350ms
Stream size                      : 124 MiB (9%)
Alignment                        : Split accross interleaves
Interleave, duration             : 42 ms (1.00 video frame)
Interleave, preload duration     : 500 ms
Writing library                  : LAME3.98r
Encoding settings                : -m j -V 4 -q 2 -lowpass 17 -b 128



SAMPLE ALSO INCLUDED WITH TORRENT !!!

CHECK SAMPLE FOR MOVIE QUALITY !!!

AFTER DOWNLOAD SEED !!!



Ripper Note :- Give Proper Credits To Team TDT wherever u share dis file ....[/size]



JOIN US ON FB: 


SCREENSHOTS:
If u r unable to see screenshots.
Copy the link and paste in your browsers URL (address). 

 
http://img839.imageshack.us/img839/3766/vlcsnap2011081823h30m53.png
 
http://img542.imageshack.us/img542/2840/vlcsnap2011081823h32m04.png
 
http://img708.imageshack.us/img708/1966/vlcsnap2011081823h33m27.png
 
http://img808.imageshack.us/img808/7342/vlcsnap2011081823h33m48.png



